<mxfile host="app.diagrams.net" agent="Mozilla/5.0 (Windows NT 10.0; Win64; x64) AppleWebKit/537.36 (KHTML, like Gecko) Chrome/129.0.0.0 Safari/537.36" version="24.7.17">
  <diagram name="Sayfa -1" id="55TPPgF1OQXHa3s0PrZa">
    <mxGraphModel grid="1" page="1" gridSize="10" guides="1" tooltips="1" connect="1" arrows="1" fold="1" pageScale="1" pageWidth="827" pageHeight="1169" math="1" shadow="0">
      <root>
        <mxCell id="0" />
        <mxCell id="1" parent="0" />
        <mxCell id="mXV_nLaLVZJTpSqG4kug-3" value="" style="shape=parallelogram;perimeter=parallelogramPerimeter;whiteSpace=wrap;html=1;fixedSize=1;fillColor=#f8cecc;strokeColor=#b85450;" vertex="1" parent="1">
          <mxGeometry x="110" y="580" width="310" height="160" as="geometry" />
        </mxCell>
        <mxCell id="mXV_nLaLVZJTpSqG4kug-4" value="" style="endArrow=classic;html=1;rounded=0;dashed=1;fontSize=11;jumpSize=6;endSize=3;" edge="1" parent="1">
          <mxGeometry width="50" height="50" relative="1" as="geometry">
            <mxPoint x="130" y="580" as="sourcePoint" />
            <mxPoint x="135" y="540" as="targetPoint" />
          </mxGeometry>
        </mxCell>
        <mxCell id="mXV_nLaLVZJTpSqG4kug-12" value="" style="endArrow=open;html=1;rounded=0;endSize=5;endFill=0;strokeWidth=1.5;" edge="1" parent="1" source="mXV_nLaLVZJTpSqG4kug-17">
          <mxGeometry width="50" height="50" relative="1" as="geometry">
            <mxPoint x="180" y="500" as="sourcePoint" />
            <mxPoint x="270" y="660" as="targetPoint" />
          </mxGeometry>
        </mxCell>
        <mxCell id="mXV_nLaLVZJTpSqG4kug-5" value="" style="endArrow=classic;html=1;rounded=0;dashed=1;fontSize=11;jumpSize=6;endSize=3;" edge="1" parent="1">
          <mxGeometry width="50" height="50" relative="1" as="geometry">
            <mxPoint x="400" y="740" as="sourcePoint" />
            <mxPoint x="440" y="740" as="targetPoint" />
          </mxGeometry>
        </mxCell>
        <mxCell id="mXV_nLaLVZJTpSqG4kug-13" value="" style="endArrow=open;html=1;rounded=0;dashed=1;endSize=3;endFill=0;strokeWidth=1.5;" edge="1" parent="1">
          <mxGeometry width="50" height="50" relative="1" as="geometry">
            <mxPoint x="270" y="660" as="sourcePoint" />
            <mxPoint x="270" y="555" as="targetPoint" />
          </mxGeometry>
        </mxCell>
        <mxCell id="mXV_nLaLVZJTpSqG4kug-14" value="" style="endArrow=open;html=1;rounded=0;endSize=5;endFill=0;strokeWidth=1.5;" edge="1" parent="1">
          <mxGeometry width="50" height="50" relative="1" as="geometry">
            <mxPoint x="270" y="659.38" as="sourcePoint" />
            <mxPoint x="320" y="500" as="targetPoint" />
          </mxGeometry>
        </mxCell>
        <mxCell id="mXV_nLaLVZJTpSqG4kug-15" value="&lt;font style=&quot;font-size: 12px;&quot;&gt;Obstacle&lt;/font&gt;" style="shape=cube;whiteSpace=wrap;html=1;boundedLbl=1;backgroundOutline=1;darkOpacity=0.05;darkOpacity2=0.1;rotation=90;fillColor=#f5f5f5;strokeColor=#666666;fontColor=#333333;" vertex="1" parent="1">
          <mxGeometry x="229.19" y="483.94" width="82.13" height="33.75" as="geometry" />
        </mxCell>
        <mxCell id="mXV_nLaLVZJTpSqG4kug-16" value="" style="verticalLabelPosition=bottom;shadow=0;dashed=0;align=center;html=1;verticalAlign=top;shape=mxgraph.electrical.radio.aerial_-_antenna_2;" vertex="1" parent="1">
          <mxGeometry x="135" y="480" width="20" height="25" as="geometry" />
        </mxCell>
        <mxCell id="mXV_nLaLVZJTpSqG4kug-17" value="&lt;font style=&quot;font-size: 10px;&quot;&gt;$$TX$$&lt;/font&gt;" style="text;html=1;align=center;verticalAlign=middle;resizable=0;points=[];autosize=1;strokeColor=none;fillColor=none;" vertex="1" parent="1">
          <mxGeometry x="115" y="456.25" width="60" height="30" as="geometry" />
        </mxCell>
        <mxCell id="mXV_nLaLVZJTpSqG4kug-22" value="&lt;font style=&quot;font-size: 10px;&quot;&gt;$$y$$&lt;/font&gt;" style="text;html=1;align=center;verticalAlign=middle;resizable=0;points=[];autosize=1;strokeColor=none;fillColor=none;" vertex="1" parent="1">
          <mxGeometry x="390" y="717" width="50" height="30" as="geometry" />
        </mxCell>
        <mxCell id="mXV_nLaLVZJTpSqG4kug-21" value="&lt;font style=&quot;font-size: 12px;&quot;&gt;$$\mathbf{\hat{k}}_i$$&lt;/font&gt;" style="text;html=1;align=center;verticalAlign=middle;resizable=0;points=[];autosize=1;strokeColor=none;fillColor=none;" vertex="1" parent="1">
          <mxGeometry x="130" y="520" width="140" height="30" as="geometry" />
        </mxCell>
        <mxCell id="mXV_nLaLVZJTpSqG4kug-23" value="&lt;font style=&quot;font-size: 12px;&quot;&gt;$$\mathbf{\hat{k}}_r$$&lt;/font&gt;" style="text;html=1;align=center;verticalAlign=middle;resizable=0;points=[];autosize=1;strokeColor=none;fillColor=none;" vertex="1" parent="1">
          <mxGeometry x="250" y="520" width="140" height="30" as="geometry" />
        </mxCell>
        <mxCell id="mXV_nLaLVZJTpSqG4kug-31" value="" style="verticalLabelPosition=bottom;verticalAlign=top;html=1;shape=mxgraph.basic.arc;startAngle=0.5314164790945005;endAngle=0.7189200001993006;rotation=120;" vertex="1" parent="1">
          <mxGeometry x="204" y="561" width="100" height="100" as="geometry" />
        </mxCell>
        <mxCell id="mXV_nLaLVZJTpSqG4kug-32" value="" style="verticalLabelPosition=bottom;verticalAlign=top;html=1;shape=mxgraph.basic.arc;startAngle=0.70083214503148;endAngle=0.7940714105632606;rotation=110;" vertex="1" parent="1">
          <mxGeometry x="218" y="564" width="100" height="100" as="geometry" />
        </mxCell>
        <mxCell id="mXV_nLaLVZJTpSqG4kug-34" value="&lt;span style=&quot;background-color: rgb(255, 255, 255);&quot;&gt;&lt;font style=&quot;&quot;&gt;&lt;span style=&quot;font-size: 10px;&quot;&gt;$$\mathbf{\hat{n}}$$&lt;/span&gt;&lt;/font&gt;&lt;/span&gt;" style="text;html=1;align=center;verticalAlign=middle;resizable=0;points=[];autosize=1;strokeColor=none;fillColor=none;" vertex="1" parent="1">
          <mxGeometry x="214.25" y="533" width="110" height="30" as="geometry" />
        </mxCell>
        <mxCell id="mXV_nLaLVZJTpSqG4kug-35" value="&lt;font style=&quot;font-size: 12px;&quot;&gt;$$\theta_i$$&lt;/font&gt;" style="text;html=1;align=center;verticalAlign=middle;resizable=0;points=[];autosize=1;strokeColor=none;fillColor=none;" vertex="1" parent="1">
          <mxGeometry x="197" y="539" width="90" height="30" as="geometry" />
        </mxCell>
        <mxCell id="mXV_nLaLVZJTpSqG4kug-36" value="&lt;font style=&quot;font-size: 12px;&quot;&gt;$$\theta_r$$&lt;/font&gt;" style="text;html=1;align=center;verticalAlign=middle;resizable=0;points=[];autosize=1;strokeColor=none;fillColor=none;" vertex="1" parent="1">
          <mxGeometry x="242" y="545" width="90" height="30" as="geometry" />
        </mxCell>
        <mxCell id="uD5t8i6K_N5I61Tdnms8-126" value="&lt;font style=&quot;font-size: 12px;&quot;&gt;$$\mathbf{\hat{k}}_r^p$$&lt;/font&gt;" style="text;html=1;align=center;verticalAlign=middle;resizable=0;points=[];autosize=1;strokeColor=none;fillColor=none;" vertex="1" parent="1">
          <mxGeometry x="208" y="641" width="160" height="30" as="geometry" />
        </mxCell>
        <mxCell id="uD5t8i6K_N5I61Tdnms8-127" value="&lt;font style=&quot;font-size: 12px;&quot;&gt;$$\mathbf{\hat{k}}_i^p$$&lt;/font&gt;" style="text;html=1;align=center;verticalAlign=middle;resizable=0;points=[];autosize=1;strokeColor=none;fillColor=none;" vertex="1" parent="1">
          <mxGeometry x="200" y="661" width="150" height="30" as="geometry" />
        </mxCell>
        <mxCell id="uD5t8i6K_N5I61Tdnms8-128" value="" style="endArrow=open;html=1;rounded=0;endSize=3;endFill=0;fillColor=#d5e8d4;strokeColor=#82b366;" edge="1" parent="1">
          <mxGeometry width="50" height="50" relative="1" as="geometry">
            <mxPoint x="128" y="754" as="sourcePoint" />
            <mxPoint x="148" y="754" as="targetPoint" />
          </mxGeometry>
        </mxCell>
        <mxCell id="uD5t8i6K_N5I61Tdnms8-130" value="&lt;font style=&quot;font-size: 12px;&quot;&gt;$$\nabla \varphi_i$$&lt;/font&gt;" style="text;html=1;align=center;verticalAlign=middle;resizable=0;points=[];autosize=1;strokeColor=none;fillColor=none;" vertex="1" parent="1">
          <mxGeometry x="97" y="739" width="130" height="30" as="geometry" />
        </mxCell>
        <mxCell id="uD5t8i6K_N5I61Tdnms8-129" value="" style="endArrow=open;html=1;rounded=0;endSize=3;endFill=0;fillColor=#dae8fc;strokeColor=#6c8ebf;" edge="1" parent="1">
          <mxGeometry width="50" height="50" relative="1" as="geometry">
            <mxPoint x="187" y="753.8" as="sourcePoint" />
            <mxPoint x="207" y="753.8" as="targetPoint" />
          </mxGeometry>
        </mxCell>
        <mxCell id="uD5t8i6K_N5I61Tdnms8-132" value="&lt;font style=&quot;font-size: 13px;&quot;&gt;$$\nabla \varphi_r$$&lt;/font&gt;" style="text;html=1;align=center;verticalAlign=middle;resizable=0;points=[];autosize=1;strokeColor=none;fillColor=none;" vertex="1" parent="1">
          <mxGeometry x="152" y="739" width="140" height="30" as="geometry" />
        </mxCell>
        <mxCell id="uD5t8i6K_N5I61Tdnms8-138" value="" style="endArrow=open;html=1;rounded=0;endSize=3;endFill=0;strokeWidth=1;fillColor=#dae8fc;strokeColor=#6c8ebf;" edge="1" parent="1">
          <mxGeometry width="50" height="50" relative="1" as="geometry">
            <mxPoint x="270" y="660" as="sourcePoint" />
            <mxPoint x="245" y="685" as="targetPoint" />
          </mxGeometry>
        </mxCell>
        <mxCell id="uD5t8i6K_N5I61Tdnms8-139" value="" style="endArrow=open;html=1;rounded=0;endSize=3;endFill=0;strokeWidth=1;fillColor=#dae8fc;strokeColor=#6c8ebf;" edge="1" parent="1">
          <mxGeometry width="50" height="50" relative="1" as="geometry">
            <mxPoint x="243.38" y="687" as="sourcePoint" />
            <mxPoint x="218.38" y="712" as="targetPoint" />
          </mxGeometry>
        </mxCell>
        <mxCell id="uD5t8i6K_N5I61Tdnms8-140" value="" style="endArrow=open;html=1;rounded=0;endSize=3;endFill=0;strokeWidth=1;fillColor=#dae8fc;strokeColor=#6c8ebf;" edge="1" parent="1">
          <mxGeometry width="50" height="50" relative="1" as="geometry">
            <mxPoint x="217" y="714" as="sourcePoint" />
            <mxPoint x="192" y="739" as="targetPoint" />
          </mxGeometry>
        </mxCell>
        <mxCell id="uD5t8i6K_N5I61Tdnms8-141" value="" style="endArrow=open;html=1;rounded=0;endSize=3;endFill=0;strokeWidth=1;fillColor=#dae8fc;strokeColor=#6c8ebf;" edge="1" parent="1">
          <mxGeometry width="50" height="50" relative="1" as="geometry">
            <mxPoint x="321.5" y="608.5" as="sourcePoint" />
            <mxPoint x="296.5" y="633.5" as="targetPoint" />
          </mxGeometry>
        </mxCell>
        <mxCell id="uD5t8i6K_N5I61Tdnms8-142" value="" style="endArrow=open;html=1;rounded=0;endSize=3;endFill=0;strokeWidth=1;fillColor=#dae8fc;strokeColor=#6c8ebf;exitX=0.763;exitY=0.001;exitDx=0;exitDy=0;exitPerimeter=0;" edge="1" parent="1" source="mXV_nLaLVZJTpSqG4kug-3">
          <mxGeometry width="50" height="50" relative="1" as="geometry">
            <mxPoint x="347.25" y="582" as="sourcePoint" />
            <mxPoint x="322.25" y="607" as="targetPoint" />
          </mxGeometry>
        </mxCell>
        <mxCell id="uD5t8i6K_N5I61Tdnms8-143" value="" style="endArrow=open;html=1;rounded=0;endSize=3;endFill=0;strokeWidth=1;fillColor=#dae8fc;strokeColor=#6c8ebf;" edge="1" parent="1">
          <mxGeometry width="50" height="50" relative="1" as="geometry">
            <mxPoint x="311.38" y="660" as="sourcePoint" />
            <mxPoint x="286.38" y="685" as="targetPoint" />
          </mxGeometry>
        </mxCell>
        <mxCell id="uD5t8i6K_N5I61Tdnms8-144" value="" style="endArrow=open;html=1;rounded=0;endSize=3;endFill=0;strokeWidth=1;fillColor=#dae8fc;strokeColor=#6c8ebf;" edge="1" parent="1">
          <mxGeometry width="50" height="50" relative="1" as="geometry">
            <mxPoint x="284.76" y="687" as="sourcePoint" />
            <mxPoint x="259.76" y="712" as="targetPoint" />
          </mxGeometry>
        </mxCell>
        <mxCell id="uD5t8i6K_N5I61Tdnms8-145" value="" style="endArrow=open;html=1;rounded=0;endSize=3;endFill=0;strokeWidth=1;fillColor=#dae8fc;strokeColor=#6c8ebf;" edge="1" parent="1">
          <mxGeometry width="50" height="50" relative="1" as="geometry">
            <mxPoint x="258.38" y="714" as="sourcePoint" />
            <mxPoint x="233.38" y="739" as="targetPoint" />
          </mxGeometry>
        </mxCell>
        <mxCell id="uD5t8i6K_N5I61Tdnms8-146" value="" style="endArrow=open;html=1;rounded=0;endSize=3;endFill=0;strokeWidth=1;fillColor=#dae8fc;strokeColor=#6c8ebf;" edge="1" parent="1">
          <mxGeometry width="50" height="50" relative="1" as="geometry">
            <mxPoint x="362.88" y="607.5" as="sourcePoint" />
            <mxPoint x="337.88" y="632.5" as="targetPoint" />
          </mxGeometry>
        </mxCell>
        <mxCell id="uD5t8i6K_N5I61Tdnms8-147" value="" style="endArrow=open;html=1;rounded=0;endSize=3;endFill=0;strokeWidth=1;fillColor=#dae8fc;strokeColor=#6c8ebf;exitX=0.701;exitY=0.001;exitDx=0;exitDy=0;exitPerimeter=0;" edge="1" parent="1">
          <mxGeometry width="50" height="50" relative="1" as="geometry">
            <mxPoint x="389.38" y="580" as="sourcePoint" />
            <mxPoint x="363.63" y="607" as="targetPoint" />
          </mxGeometry>
        </mxCell>
        <mxCell id="uD5t8i6K_N5I61Tdnms8-148" value="" style="endArrow=open;html=1;rounded=0;endSize=3;endFill=0;strokeWidth=1;fillColor=#dae8fc;strokeColor=#6c8ebf;" edge="1" parent="1">
          <mxGeometry width="50" height="50" relative="1" as="geometry">
            <mxPoint x="337" y="634" as="sourcePoint" />
            <mxPoint x="312" y="659" as="targetPoint" />
          </mxGeometry>
        </mxCell>
        <mxCell id="uD5t8i6K_N5I61Tdnms8-149" value="" style="endArrow=open;html=1;rounded=0;endSize=3;endFill=0;strokeWidth=1;fillColor=#dae8fc;strokeColor=#6c8ebf;" edge="1" parent="1">
          <mxGeometry width="50" height="50" relative="1" as="geometry">
            <mxPoint x="352" y="660" as="sourcePoint" />
            <mxPoint x="327" y="685" as="targetPoint" />
          </mxGeometry>
        </mxCell>
        <mxCell id="uD5t8i6K_N5I61Tdnms8-150" value="" style="endArrow=open;html=1;rounded=0;endSize=3;endFill=0;strokeWidth=1;fillColor=#dae8fc;strokeColor=#6c8ebf;" edge="1" parent="1">
          <mxGeometry width="50" height="50" relative="1" as="geometry">
            <mxPoint x="325.38" y="687" as="sourcePoint" />
            <mxPoint x="300.38" y="712" as="targetPoint" />
          </mxGeometry>
        </mxCell>
        <mxCell id="uD5t8i6K_N5I61Tdnms8-151" value="" style="endArrow=open;html=1;rounded=0;endSize=3;endFill=0;strokeWidth=1;fillColor=#dae8fc;strokeColor=#6c8ebf;" edge="1" parent="1">
          <mxGeometry width="50" height="50" relative="1" as="geometry">
            <mxPoint x="299" y="714" as="sourcePoint" />
            <mxPoint x="274" y="739" as="targetPoint" />
          </mxGeometry>
        </mxCell>
        <mxCell id="uD5t8i6K_N5I61Tdnms8-152" value="" style="endArrow=open;html=1;rounded=0;endSize=3;endFill=0;strokeWidth=1;fillColor=#dae8fc;strokeColor=#6c8ebf;" edge="1" parent="1">
          <mxGeometry width="50" height="50" relative="1" as="geometry">
            <mxPoint x="403.5" y="607.5" as="sourcePoint" />
            <mxPoint x="378.5" y="632.5" as="targetPoint" />
          </mxGeometry>
        </mxCell>
        <mxCell id="uD5t8i6K_N5I61Tdnms8-153" value="" style="endArrow=open;html=1;rounded=0;endSize=3;endFill=0;strokeWidth=1;fillColor=#dae8fc;strokeColor=#6c8ebf;" edge="1" parent="1">
          <mxGeometry width="50" height="50" relative="1" as="geometry">
            <mxPoint x="419" y="591" as="sourcePoint" />
            <mxPoint x="404.25" y="607" as="targetPoint" />
          </mxGeometry>
        </mxCell>
        <mxCell id="uD5t8i6K_N5I61Tdnms8-154" value="" style="endArrow=open;html=1;rounded=0;endSize=3;endFill=0;strokeWidth=1;fillColor=#dae8fc;strokeColor=#6c8ebf;" edge="1" parent="1">
          <mxGeometry width="50" height="50" relative="1" as="geometry">
            <mxPoint x="377.62" y="634" as="sourcePoint" />
            <mxPoint x="352.62" y="659" as="targetPoint" />
          </mxGeometry>
        </mxCell>
        <mxCell id="uD5t8i6K_N5I61Tdnms8-161" value="" style="endArrow=open;html=1;rounded=0;endSize=3;endFill=0;strokeWidth=1;fillColor=#dae8fc;strokeColor=#6c8ebf;" edge="1" parent="1">
          <mxGeometry width="50" height="50" relative="1" as="geometry">
            <mxPoint x="232" y="660" as="sourcePoint" />
            <mxPoint x="207" y="685" as="targetPoint" />
          </mxGeometry>
        </mxCell>
        <mxCell id="uD5t8i6K_N5I61Tdnms8-162" value="" style="endArrow=open;html=1;rounded=0;endSize=3;endFill=0;strokeWidth=1;fillColor=#dae8fc;strokeColor=#6c8ebf;" edge="1" parent="1">
          <mxGeometry width="50" height="50" relative="1" as="geometry">
            <mxPoint x="205.38" y="687" as="sourcePoint" />
            <mxPoint x="180.38" y="712" as="targetPoint" />
          </mxGeometry>
        </mxCell>
        <mxCell id="uD5t8i6K_N5I61Tdnms8-163" value="" style="endArrow=open;html=1;rounded=0;endSize=3;endFill=0;strokeWidth=1;fillColor=#dae8fc;strokeColor=#6c8ebf;" edge="1" parent="1">
          <mxGeometry width="50" height="50" relative="1" as="geometry">
            <mxPoint x="179" y="714" as="sourcePoint" />
            <mxPoint x="154" y="739" as="targetPoint" />
          </mxGeometry>
        </mxCell>
        <mxCell id="uD5t8i6K_N5I61Tdnms8-164" value="" style="endArrow=open;html=1;rounded=0;endSize=3;endFill=0;strokeWidth=1;fillColor=#dae8fc;strokeColor=#6c8ebf;" edge="1" parent="1">
          <mxGeometry width="50" height="50" relative="1" as="geometry">
            <mxPoint x="283.5" y="607.5" as="sourcePoint" />
            <mxPoint x="258.5" y="632.5" as="targetPoint" />
          </mxGeometry>
        </mxCell>
        <mxCell id="uD5t8i6K_N5I61Tdnms8-165" value="" style="endArrow=open;html=1;rounded=0;endSize=3;endFill=0;strokeWidth=1;fillColor=#dae8fc;strokeColor=#6c8ebf;exitX=0.701;exitY=0.001;exitDx=0;exitDy=0;exitPerimeter=0;" edge="1" parent="1">
          <mxGeometry width="50" height="50" relative="1" as="geometry">
            <mxPoint x="310" y="580" as="sourcePoint" />
            <mxPoint x="284.25" y="607" as="targetPoint" />
          </mxGeometry>
        </mxCell>
        <mxCell id="uD5t8i6K_N5I61Tdnms8-166" value="" style="endArrow=open;html=1;rounded=0;endSize=3;endFill=0;strokeWidth=1;fillColor=#dae8fc;strokeColor=#6c8ebf;" edge="1" parent="1">
          <mxGeometry width="50" height="50" relative="1" as="geometry">
            <mxPoint x="257.62" y="634" as="sourcePoint" />
            <mxPoint x="232.62" y="659" as="targetPoint" />
          </mxGeometry>
        </mxCell>
        <mxCell id="uD5t8i6K_N5I61Tdnms8-167" value="" style="endArrow=open;html=1;rounded=0;endSize=3;endFill=0;strokeWidth=1;fillColor=#dae8fc;strokeColor=#6c8ebf;" edge="1" parent="1">
          <mxGeometry width="50" height="50" relative="1" as="geometry">
            <mxPoint x="192" y="660.5" as="sourcePoint" />
            <mxPoint x="167" y="685.5" as="targetPoint" />
          </mxGeometry>
        </mxCell>
        <mxCell id="uD5t8i6K_N5I61Tdnms8-168" value="" style="endArrow=open;html=1;rounded=0;endSize=3;endFill=0;strokeWidth=1;fillColor=#dae8fc;strokeColor=#6c8ebf;" edge="1" parent="1">
          <mxGeometry width="50" height="50" relative="1" as="geometry">
            <mxPoint x="165.38" y="687.5" as="sourcePoint" />
            <mxPoint x="140.38" y="712.5" as="targetPoint" />
          </mxGeometry>
        </mxCell>
        <mxCell id="uD5t8i6K_N5I61Tdnms8-169" value="" style="endArrow=open;html=1;rounded=0;endSize=3;endFill=0;strokeWidth=1;fillColor=#dae8fc;strokeColor=#6c8ebf;" edge="1" parent="1">
          <mxGeometry width="50" height="50" relative="1" as="geometry">
            <mxPoint x="139" y="714.5" as="sourcePoint" />
            <mxPoint x="114" y="739.5" as="targetPoint" />
          </mxGeometry>
        </mxCell>
        <mxCell id="uD5t8i6K_N5I61Tdnms8-170" value="" style="endArrow=open;html=1;rounded=0;endSize=3;endFill=0;strokeWidth=1;fillColor=#dae8fc;strokeColor=#6c8ebf;" edge="1" parent="1">
          <mxGeometry width="50" height="50" relative="1" as="geometry">
            <mxPoint x="243.5" y="608" as="sourcePoint" />
            <mxPoint x="218.5" y="633" as="targetPoint" />
          </mxGeometry>
        </mxCell>
        <mxCell id="uD5t8i6K_N5I61Tdnms8-171" value="" style="endArrow=open;html=1;rounded=0;endSize=3;endFill=0;strokeWidth=1;fillColor=#dae8fc;strokeColor=#6c8ebf;exitX=0.701;exitY=0.001;exitDx=0;exitDy=0;exitPerimeter=0;" edge="1" parent="1">
          <mxGeometry width="50" height="50" relative="1" as="geometry">
            <mxPoint x="270" y="580.5" as="sourcePoint" />
            <mxPoint x="244.25" y="607.5" as="targetPoint" />
          </mxGeometry>
        </mxCell>
        <mxCell id="uD5t8i6K_N5I61Tdnms8-172" value="" style="endArrow=open;html=1;rounded=0;endSize=3;endFill=0;strokeWidth=1;fillColor=#dae8fc;strokeColor=#6c8ebf;" edge="1" parent="1">
          <mxGeometry width="50" height="50" relative="1" as="geometry">
            <mxPoint x="217.62" y="634.5" as="sourcePoint" />
            <mxPoint x="192.62" y="659.5" as="targetPoint" />
          </mxGeometry>
        </mxCell>
        <mxCell id="uD5t8i6K_N5I61Tdnms8-173" value="" style="endArrow=open;html=1;rounded=0;endSize=3;endFill=0;strokeWidth=1;fillColor=#dae8fc;strokeColor=#6c8ebf;" edge="1" parent="1">
          <mxGeometry width="50" height="50" relative="1" as="geometry">
            <mxPoint x="151.13" y="660" as="sourcePoint" />
            <mxPoint x="126.13" y="685" as="targetPoint" />
          </mxGeometry>
        </mxCell>
        <mxCell id="uD5t8i6K_N5I61Tdnms8-174" value="" style="endArrow=open;html=1;rounded=0;endSize=3;endFill=0;strokeWidth=1;fillColor=#dae8fc;strokeColor=#6c8ebf;entryX=0.015;entryY=0.724;entryDx=0;entryDy=0;entryPerimeter=0;" edge="1" parent="1" target="mXV_nLaLVZJTpSqG4kug-3">
          <mxGeometry width="50" height="50" relative="1" as="geometry">
            <mxPoint x="124.50999999999999" y="687" as="sourcePoint" />
            <mxPoint x="99.50999999999999" y="712" as="targetPoint" />
          </mxGeometry>
        </mxCell>
        <mxCell id="uD5t8i6K_N5I61Tdnms8-176" value="" style="endArrow=open;html=1;rounded=0;endSize=3;endFill=0;strokeWidth=1;fillColor=#dae8fc;strokeColor=#6c8ebf;" edge="1" parent="1">
          <mxGeometry width="50" height="50" relative="1" as="geometry">
            <mxPoint x="202.63" y="607.5" as="sourcePoint" />
            <mxPoint x="177.63" y="632.5" as="targetPoint" />
          </mxGeometry>
        </mxCell>
        <mxCell id="uD5t8i6K_N5I61Tdnms8-177" value="" style="endArrow=open;html=1;rounded=0;endSize=3;endFill=0;strokeWidth=1;fillColor=#dae8fc;strokeColor=#6c8ebf;exitX=0.701;exitY=0.001;exitDx=0;exitDy=0;exitPerimeter=0;" edge="1" parent="1">
          <mxGeometry width="50" height="50" relative="1" as="geometry">
            <mxPoint x="229.13" y="580" as="sourcePoint" />
            <mxPoint x="203.38" y="607" as="targetPoint" />
          </mxGeometry>
        </mxCell>
        <mxCell id="uD5t8i6K_N5I61Tdnms8-178" value="" style="endArrow=open;html=1;rounded=0;endSize=3;endFill=0;strokeWidth=1;fillColor=#dae8fc;strokeColor=#6c8ebf;" edge="1" parent="1">
          <mxGeometry width="50" height="50" relative="1" as="geometry">
            <mxPoint x="176.75" y="634" as="sourcePoint" />
            <mxPoint x="151.75" y="659" as="targetPoint" />
          </mxGeometry>
        </mxCell>
        <mxCell id="uD5t8i6K_N5I61Tdnms8-182" value="" style="endArrow=open;html=1;rounded=0;endSize=3;endFill=0;strokeWidth=1;fillColor=#dae8fc;strokeColor=#6c8ebf;" edge="1" parent="1">
          <mxGeometry width="50" height="50" relative="1" as="geometry">
            <mxPoint x="163.5" y="607.5" as="sourcePoint" />
            <mxPoint x="138.5" y="632.5" as="targetPoint" />
          </mxGeometry>
        </mxCell>
        <mxCell id="uD5t8i6K_N5I61Tdnms8-183" value="" style="endArrow=open;html=1;rounded=0;endSize=3;endFill=0;strokeWidth=1;fillColor=#dae8fc;strokeColor=#6c8ebf;exitX=0.701;exitY=0.001;exitDx=0;exitDy=0;exitPerimeter=0;" edge="1" parent="1">
          <mxGeometry width="50" height="50" relative="1" as="geometry">
            <mxPoint x="190" y="580" as="sourcePoint" />
            <mxPoint x="164.25" y="607" as="targetPoint" />
          </mxGeometry>
        </mxCell>
        <mxCell id="uD5t8i6K_N5I61Tdnms8-184" value="" style="endArrow=open;html=1;rounded=0;endSize=3;endFill=0;strokeWidth=1;fillColor=#dae8fc;strokeColor=#6c8ebf;entryX=0.032;entryY=0.442;entryDx=0;entryDy=0;entryPerimeter=0;" edge="1" parent="1" target="mXV_nLaLVZJTpSqG4kug-3">
          <mxGeometry width="50" height="50" relative="1" as="geometry">
            <mxPoint x="137.62" y="634" as="sourcePoint" />
            <mxPoint x="112.62" y="659" as="targetPoint" />
          </mxGeometry>
        </mxCell>
        <mxCell id="uD5t8i6K_N5I61Tdnms8-189" value="" style="endArrow=open;html=1;rounded=0;endSize=3;endFill=0;strokeWidth=1;fillColor=#dae8fc;strokeColor=#6c8ebf;exitX=0.701;exitY=0.001;exitDx=0;exitDy=0;exitPerimeter=0;entryX=0.048;entryY=0.153;entryDx=0;entryDy=0;entryPerimeter=0;" edge="1" parent="1" target="mXV_nLaLVZJTpSqG4kug-3">
          <mxGeometry width="50" height="50" relative="1" as="geometry">
            <mxPoint x="150" y="580" as="sourcePoint" />
            <mxPoint x="124.25" y="607" as="targetPoint" />
          </mxGeometry>
        </mxCell>
        <mxCell id="uD5t8i6K_N5I61Tdnms8-191" value="" style="endArrow=open;html=1;rounded=0;endSize=3;endFill=0;strokeWidth=1;fillColor=#dae8fc;strokeColor=#6c8ebf;" edge="1" parent="1">
          <mxGeometry width="50" height="50" relative="1" as="geometry">
            <mxPoint x="392" y="660" as="sourcePoint" />
            <mxPoint x="367" y="685" as="targetPoint" />
          </mxGeometry>
        </mxCell>
        <mxCell id="uD5t8i6K_N5I61Tdnms8-192" value="" style="endArrow=open;html=1;rounded=0;endSize=3;endFill=0;strokeWidth=1;fillColor=#dae8fc;strokeColor=#6c8ebf;" edge="1" parent="1">
          <mxGeometry width="50" height="50" relative="1" as="geometry">
            <mxPoint x="365.38" y="687" as="sourcePoint" />
            <mxPoint x="340.38" y="712" as="targetPoint" />
          </mxGeometry>
        </mxCell>
        <mxCell id="uD5t8i6K_N5I61Tdnms8-193" value="" style="endArrow=open;html=1;rounded=0;endSize=3;endFill=0;strokeWidth=1;fillColor=#dae8fc;strokeColor=#6c8ebf;" edge="1" parent="1">
          <mxGeometry width="50" height="50" relative="1" as="geometry">
            <mxPoint x="339" y="714" as="sourcePoint" />
            <mxPoint x="314" y="739" as="targetPoint" />
          </mxGeometry>
        </mxCell>
        <mxCell id="uD5t8i6K_N5I61Tdnms8-196" value="" style="endArrow=open;html=1;rounded=0;endSize=3;endFill=0;strokeWidth=1;fillColor=#dae8fc;strokeColor=#6c8ebf;exitX=0.974;exitY=0.371;exitDx=0;exitDy=0;exitPerimeter=0;" edge="1" parent="1" source="mXV_nLaLVZJTpSqG4kug-3">
          <mxGeometry width="50" height="50" relative="1" as="geometry">
            <mxPoint x="417.62" y="634" as="sourcePoint" />
            <mxPoint x="392.62" y="659" as="targetPoint" />
          </mxGeometry>
        </mxCell>
        <mxCell id="uD5t8i6K_N5I61Tdnms8-198" value="" style="endArrow=open;html=1;rounded=0;endSize=3;endFill=0;strokeWidth=1;fillColor=#dae8fc;strokeColor=#6c8ebf;" edge="1" parent="1">
          <mxGeometry width="50" height="50" relative="1" as="geometry">
            <mxPoint x="405.38" y="687" as="sourcePoint" />
            <mxPoint x="380.38" y="712" as="targetPoint" />
          </mxGeometry>
        </mxCell>
        <mxCell id="uD5t8i6K_N5I61Tdnms8-199" value="" style="endArrow=open;html=1;rounded=0;endSize=3;endFill=0;strokeWidth=1;fillColor=#dae8fc;strokeColor=#6c8ebf;" edge="1" parent="1">
          <mxGeometry width="50" height="50" relative="1" as="geometry">
            <mxPoint x="379" y="714" as="sourcePoint" />
            <mxPoint x="354" y="739" as="targetPoint" />
          </mxGeometry>
        </mxCell>
        <mxCell id="uD5t8i6K_N5I61Tdnms8-209" value="" style="endArrow=open;html=1;rounded=0;endSize=3;endFill=0;strokeWidth=1;fillColor=#d5e8d4;strokeColor=#82b366;" edge="1" parent="1">
          <mxGeometry width="50" height="50" relative="1" as="geometry">
            <mxPoint x="270" y="661" as="sourcePoint" />
            <mxPoint x="242" y="640" as="targetPoint" />
          </mxGeometry>
        </mxCell>
        <mxCell id="uD5t8i6K_N5I61Tdnms8-210" value="" style="endArrow=open;html=1;rounded=0;endSize=3;endFill=0;strokeWidth=1;fillColor=#d5e8d4;strokeColor=#82b366;" edge="1" parent="1">
          <mxGeometry width="50" height="50" relative="1" as="geometry">
            <mxPoint x="240.25" y="638.5" as="sourcePoint" />
            <mxPoint x="212.25" y="617.5" as="targetPoint" />
          </mxGeometry>
        </mxCell>
        <mxCell id="uD5t8i6K_N5I61Tdnms8-211" value="" style="endArrow=open;html=1;rounded=0;endSize=3;endFill=0;strokeWidth=1;fillColor=#d5e8d4;strokeColor=#82b366;" edge="1" parent="1">
          <mxGeometry width="50" height="50" relative="1" as="geometry">
            <mxPoint x="211" y="617" as="sourcePoint" />
            <mxPoint x="183" y="596" as="targetPoint" />
          </mxGeometry>
        </mxCell>
        <mxCell id="uD5t8i6K_N5I61Tdnms8-212" value="" style="endArrow=open;html=1;rounded=0;endSize=3;endFill=0;strokeWidth=1;fillColor=#d5e8d4;strokeColor=#82b366;entryX=0.151;entryY=-0.004;entryDx=0;entryDy=0;entryPerimeter=0;" edge="1" parent="1" target="mXV_nLaLVZJTpSqG4kug-3">
          <mxGeometry width="50" height="50" relative="1" as="geometry">
            <mxPoint x="182" y="595" as="sourcePoint" />
            <mxPoint x="154" y="574" as="targetPoint" />
          </mxGeometry>
        </mxCell>
        <mxCell id="uD5t8i6K_N5I61Tdnms8-213" value="" style="endArrow=open;html=1;rounded=0;endSize=3;endFill=0;strokeWidth=1;fillColor=#d5e8d4;strokeColor=#82b366;exitX=0.591;exitY=-0.058;exitDx=0;exitDy=0;exitPerimeter=0;" edge="1" parent="1">
          <mxGeometry width="50" height="50" relative="1" as="geometry">
            <mxPoint x="372.8499999999999" y="737.26" as="sourcePoint" />
            <mxPoint x="359" y="727" as="targetPoint" />
          </mxGeometry>
        </mxCell>
        <mxCell id="uD5t8i6K_N5I61Tdnms8-214" value="" style="endArrow=open;html=1;rounded=0;endSize=3;endFill=0;strokeWidth=1;fillColor=#d5e8d4;strokeColor=#82b366;" edge="1" parent="1">
          <mxGeometry width="50" height="50" relative="1" as="geometry">
            <mxPoint x="357.25" y="725.5" as="sourcePoint" />
            <mxPoint x="329.25" y="704.5" as="targetPoint" />
          </mxGeometry>
        </mxCell>
        <mxCell id="uD5t8i6K_N5I61Tdnms8-215" value="" style="endArrow=open;html=1;rounded=0;endSize=3;endFill=0;strokeWidth=1;fillColor=#d5e8d4;strokeColor=#82b366;" edge="1" parent="1">
          <mxGeometry width="50" height="50" relative="1" as="geometry">
            <mxPoint x="328" y="704" as="sourcePoint" />
            <mxPoint x="300" y="683" as="targetPoint" />
          </mxGeometry>
        </mxCell>
        <mxCell id="uD5t8i6K_N5I61Tdnms8-217" value="" style="endArrow=open;html=1;rounded=0;endSize=3;endFill=0;strokeWidth=1;fillColor=#d5e8d4;strokeColor=#82b366;" edge="1" parent="1">
          <mxGeometry width="50" height="50" relative="1" as="geometry">
            <mxPoint x="319.5" y="667" as="sourcePoint" />
            <mxPoint x="291.5" y="646" as="targetPoint" />
          </mxGeometry>
        </mxCell>
        <mxCell id="uD5t8i6K_N5I61Tdnms8-218" value="" style="endArrow=open;html=1;rounded=0;endSize=3;endFill=0;strokeWidth=1;fillColor=#d5e8d4;strokeColor=#82b366;" edge="1" parent="1">
          <mxGeometry width="50" height="50" relative="1" as="geometry">
            <mxPoint x="289.75" y="644.5" as="sourcePoint" />
            <mxPoint x="261.75" y="623.5" as="targetPoint" />
          </mxGeometry>
        </mxCell>
        <mxCell id="uD5t8i6K_N5I61Tdnms8-219" value="" style="endArrow=open;html=1;rounded=0;endSize=3;endFill=0;strokeWidth=1;fillColor=#d5e8d4;strokeColor=#82b366;" edge="1" parent="1">
          <mxGeometry width="50" height="50" relative="1" as="geometry">
            <mxPoint x="260.5" y="623" as="sourcePoint" />
            <mxPoint x="232.5" y="602" as="targetPoint" />
          </mxGeometry>
        </mxCell>
        <mxCell id="uD5t8i6K_N5I61Tdnms8-220" value="" style="endArrow=open;html=1;rounded=0;endSize=3;endFill=0;strokeWidth=1;fillColor=#d5e8d4;strokeColor=#82b366;" edge="1" parent="1">
          <mxGeometry width="50" height="50" relative="1" as="geometry">
            <mxPoint x="231.5" y="601" as="sourcePoint" />
            <mxPoint x="203.5" y="580" as="targetPoint" />
          </mxGeometry>
        </mxCell>
        <mxCell id="uD5t8i6K_N5I61Tdnms8-222" value="" style="endArrow=open;html=1;rounded=0;endSize=3;endFill=0;strokeWidth=1;fillColor=#d5e8d4;strokeColor=#82b366;exitX=0.934;exitY=0.914;exitDx=0;exitDy=0;exitPerimeter=0;" edge="1" parent="1" source="mXV_nLaLVZJTpSqG4kug-3">
          <mxGeometry width="50" height="50" relative="1" as="geometry">
            <mxPoint x="406.75" y="731.5" as="sourcePoint" />
            <mxPoint x="378.75" y="710.5" as="targetPoint" />
          </mxGeometry>
        </mxCell>
        <mxCell id="uD5t8i6K_N5I61Tdnms8-223" value="" style="endArrow=open;html=1;rounded=0;endSize=3;endFill=0;strokeWidth=1;fillColor=#d5e8d4;strokeColor=#82b366;" edge="1" parent="1">
          <mxGeometry width="50" height="50" relative="1" as="geometry">
            <mxPoint x="377.5" y="710" as="sourcePoint" />
            <mxPoint x="349.5" y="689" as="targetPoint" />
          </mxGeometry>
        </mxCell>
        <mxCell id="uD5t8i6K_N5I61Tdnms8-224" value="" style="endArrow=open;html=1;rounded=0;endSize=3;endFill=0;strokeWidth=1;fillColor=#d5e8d4;strokeColor=#82b366;" edge="1" parent="1">
          <mxGeometry width="50" height="50" relative="1" as="geometry">
            <mxPoint x="348.5" y="688" as="sourcePoint" />
            <mxPoint x="320.5" y="667" as="targetPoint" />
          </mxGeometry>
        </mxCell>
        <mxCell id="uD5t8i6K_N5I61Tdnms8-225" value="" style="endArrow=open;html=1;rounded=0;endSize=3;endFill=0;strokeWidth=1;fillColor=#d5e8d4;strokeColor=#82b366;" edge="1" parent="1">
          <mxGeometry width="50" height="50" relative="1" as="geometry">
            <mxPoint x="359" y="667" as="sourcePoint" />
            <mxPoint x="331" y="646" as="targetPoint" />
          </mxGeometry>
        </mxCell>
        <mxCell id="uD5t8i6K_N5I61Tdnms8-226" value="" style="endArrow=open;html=1;rounded=0;endSize=3;endFill=0;strokeWidth=1;fillColor=#d5e8d4;strokeColor=#82b366;" edge="1" parent="1">
          <mxGeometry width="50" height="50" relative="1" as="geometry">
            <mxPoint x="329.25" y="644.5" as="sourcePoint" />
            <mxPoint x="301.25" y="623.5" as="targetPoint" />
          </mxGeometry>
        </mxCell>
        <mxCell id="uD5t8i6K_N5I61Tdnms8-227" value="" style="endArrow=open;html=1;rounded=0;endSize=3;endFill=0;strokeWidth=1;fillColor=#d5e8d4;strokeColor=#82b366;" edge="1" parent="1">
          <mxGeometry width="50" height="50" relative="1" as="geometry">
            <mxPoint x="300" y="623" as="sourcePoint" />
            <mxPoint x="272" y="602" as="targetPoint" />
          </mxGeometry>
        </mxCell>
        <mxCell id="uD5t8i6K_N5I61Tdnms8-228" value="" style="endArrow=open;html=1;rounded=0;endSize=3;endFill=0;strokeWidth=1;fillColor=#d5e8d4;strokeColor=#82b366;" edge="1" parent="1">
          <mxGeometry width="50" height="50" relative="1" as="geometry">
            <mxPoint x="271" y="601" as="sourcePoint" />
            <mxPoint x="243" y="580" as="targetPoint" />
          </mxGeometry>
        </mxCell>
        <mxCell id="uD5t8i6K_N5I61Tdnms8-231" value="" style="endArrow=open;html=1;rounded=0;endSize=3;endFill=0;strokeWidth=1;fillColor=#d5e8d4;strokeColor=#82b366;exitX=0.948;exitY=0.752;exitDx=0;exitDy=0;exitPerimeter=0;" edge="1" parent="1" source="mXV_nLaLVZJTpSqG4kug-3">
          <mxGeometry width="50" height="50" relative="1" as="geometry">
            <mxPoint x="417" y="710" as="sourcePoint" />
            <mxPoint x="389" y="689" as="targetPoint" />
          </mxGeometry>
        </mxCell>
        <mxCell id="uD5t8i6K_N5I61Tdnms8-232" value="" style="endArrow=open;html=1;rounded=0;endSize=3;endFill=0;strokeWidth=1;fillColor=#d5e8d4;strokeColor=#82b366;" edge="1" parent="1">
          <mxGeometry width="50" height="50" relative="1" as="geometry">
            <mxPoint x="388" y="688" as="sourcePoint" />
            <mxPoint x="360" y="667" as="targetPoint" />
          </mxGeometry>
        </mxCell>
        <mxCell id="uD5t8i6K_N5I61Tdnms8-233" value="" style="endArrow=open;html=1;rounded=0;endSize=3;endFill=0;strokeWidth=1;fillColor=#d5e8d4;strokeColor=#82b366;" edge="1" parent="1">
          <mxGeometry width="50" height="50" relative="1" as="geometry">
            <mxPoint x="399" y="667" as="sourcePoint" />
            <mxPoint x="371" y="646" as="targetPoint" />
          </mxGeometry>
        </mxCell>
        <mxCell id="uD5t8i6K_N5I61Tdnms8-234" value="" style="endArrow=open;html=1;rounded=0;endSize=3;endFill=0;strokeWidth=1;fillColor=#d5e8d4;strokeColor=#82b366;" edge="1" parent="1">
          <mxGeometry width="50" height="50" relative="1" as="geometry">
            <mxPoint x="369.25" y="644.5" as="sourcePoint" />
            <mxPoint x="341.25" y="623.5" as="targetPoint" />
          </mxGeometry>
        </mxCell>
        <mxCell id="uD5t8i6K_N5I61Tdnms8-235" value="" style="endArrow=open;html=1;rounded=0;endSize=3;endFill=0;strokeWidth=1;fillColor=#d5e8d4;strokeColor=#82b366;" edge="1" parent="1">
          <mxGeometry width="50" height="50" relative="1" as="geometry">
            <mxPoint x="340" y="623" as="sourcePoint" />
            <mxPoint x="312" y="602" as="targetPoint" />
          </mxGeometry>
        </mxCell>
        <mxCell id="uD5t8i6K_N5I61Tdnms8-236" value="" style="endArrow=open;html=1;rounded=0;endSize=3;endFill=0;strokeWidth=1;fillColor=#d5e8d4;strokeColor=#82b366;" edge="1" parent="1">
          <mxGeometry width="50" height="50" relative="1" as="geometry">
            <mxPoint x="311" y="601" as="sourcePoint" />
            <mxPoint x="283" y="580" as="targetPoint" />
          </mxGeometry>
        </mxCell>
        <mxCell id="uD5t8i6K_N5I61Tdnms8-240" value="" style="endArrow=open;html=1;rounded=0;endSize=3;endFill=0;strokeWidth=1;fillColor=#d5e8d4;strokeColor=#82b366;exitX=0.955;exitY=0.578;exitDx=0;exitDy=0;exitPerimeter=0;" edge="1" parent="1" source="mXV_nLaLVZJTpSqG4kug-3">
          <mxGeometry width="50" height="50" relative="1" as="geometry">
            <mxPoint x="428" y="688" as="sourcePoint" />
            <mxPoint x="400" y="667" as="targetPoint" />
          </mxGeometry>
        </mxCell>
        <mxCell id="uD5t8i6K_N5I61Tdnms8-242" value="" style="endArrow=open;html=1;rounded=0;endSize=3;endFill=0;strokeWidth=1;fillColor=#d5e8d4;strokeColor=#82b366;" edge="1" parent="1">
          <mxGeometry width="50" height="50" relative="1" as="geometry">
            <mxPoint x="409.5" y="644.5" as="sourcePoint" />
            <mxPoint x="381.5" y="623.5" as="targetPoint" />
          </mxGeometry>
        </mxCell>
        <mxCell id="uD5t8i6K_N5I61Tdnms8-243" value="" style="endArrow=open;html=1;rounded=0;endSize=3;endFill=0;strokeWidth=1;fillColor=#d5e8d4;strokeColor=#82b366;" edge="1" parent="1">
          <mxGeometry width="50" height="50" relative="1" as="geometry">
            <mxPoint x="380.25" y="623" as="sourcePoint" />
            <mxPoint x="352.25" y="602" as="targetPoint" />
          </mxGeometry>
        </mxCell>
        <mxCell id="uD5t8i6K_N5I61Tdnms8-244" value="" style="endArrow=open;html=1;rounded=0;endSize=3;endFill=0;strokeWidth=1;fillColor=#d5e8d4;strokeColor=#82b366;" edge="1" parent="1">
          <mxGeometry width="50" height="50" relative="1" as="geometry">
            <mxPoint x="351.25" y="601" as="sourcePoint" />
            <mxPoint x="323.25" y="580" as="targetPoint" />
          </mxGeometry>
        </mxCell>
        <mxCell id="uD5t8i6K_N5I61Tdnms8-251" value="" style="endArrow=open;html=1;rounded=0;endSize=3;endFill=0;strokeWidth=1;fillColor=#d5e8d4;strokeColor=#82b366;exitX=0.981;exitY=0.242;exitDx=0;exitDy=0;exitPerimeter=0;" edge="1" parent="1" source="mXV_nLaLVZJTpSqG4kug-3">
          <mxGeometry width="50" height="50" relative="1" as="geometry">
            <mxPoint x="420" y="623" as="sourcePoint" />
            <mxPoint x="392" y="602" as="targetPoint" />
          </mxGeometry>
        </mxCell>
        <mxCell id="uD5t8i6K_N5I61Tdnms8-252" value="" style="endArrow=open;html=1;rounded=0;endSize=3;endFill=0;strokeWidth=1;fillColor=#d5e8d4;strokeColor=#82b366;" edge="1" parent="1">
          <mxGeometry width="50" height="50" relative="1" as="geometry">
            <mxPoint x="391" y="601" as="sourcePoint" />
            <mxPoint x="363" y="580" as="targetPoint" />
          </mxGeometry>
        </mxCell>
        <mxCell id="uD5t8i6K_N5I61Tdnms8-260" value="" style="endArrow=open;html=1;rounded=0;endSize=3;endFill=0;strokeWidth=1;fillColor=#d5e8d4;strokeColor=#82b366;exitX=0.996;exitY=0.076;exitDx=0;exitDy=0;exitPerimeter=0;" edge="1" parent="1" source="mXV_nLaLVZJTpSqG4kug-3">
          <mxGeometry width="50" height="50" relative="1" as="geometry">
            <mxPoint x="430.5" y="601" as="sourcePoint" />
            <mxPoint x="402.5" y="580" as="targetPoint" />
          </mxGeometry>
        </mxCell>
        <mxCell id="uD5t8i6K_N5I61Tdnms8-265" value="" style="endArrow=open;html=1;rounded=0;endSize=3;endFill=0;strokeWidth=1;fillColor=#d5e8d4;strokeColor=#82b366;" edge="1" parent="1">
          <mxGeometry width="50" height="50" relative="1" as="geometry">
            <mxPoint x="238" y="667" as="sourcePoint" />
            <mxPoint x="210" y="646" as="targetPoint" />
          </mxGeometry>
        </mxCell>
        <mxCell id="uD5t8i6K_N5I61Tdnms8-266" value="" style="endArrow=open;html=1;rounded=0;endSize=3;endFill=0;strokeWidth=1;fillColor=#d5e8d4;strokeColor=#82b366;" edge="1" parent="1">
          <mxGeometry width="50" height="50" relative="1" as="geometry">
            <mxPoint x="208.25" y="644.5" as="sourcePoint" />
            <mxPoint x="180.25" y="623.5" as="targetPoint" />
          </mxGeometry>
        </mxCell>
        <mxCell id="uD5t8i6K_N5I61Tdnms8-267" value="" style="endArrow=open;html=1;rounded=0;endSize=3;endFill=0;strokeWidth=1;fillColor=#d5e8d4;strokeColor=#82b366;" edge="1" parent="1">
          <mxGeometry width="50" height="50" relative="1" as="geometry">
            <mxPoint x="179" y="623" as="sourcePoint" />
            <mxPoint x="151" y="602" as="targetPoint" />
          </mxGeometry>
        </mxCell>
        <mxCell id="uD5t8i6K_N5I61Tdnms8-268" value="" style="endArrow=open;html=1;rounded=0;endSize=3;endFill=0;strokeWidth=1;fillColor=#d5e8d4;strokeColor=#82b366;entryX=0.058;entryY=0.037;entryDx=0;entryDy=0;entryPerimeter=0;" edge="1" parent="1" target="mXV_nLaLVZJTpSqG4kug-3">
          <mxGeometry width="50" height="50" relative="1" as="geometry">
            <mxPoint x="150" y="601" as="sourcePoint" />
            <mxPoint x="122" y="580" as="targetPoint" />
          </mxGeometry>
        </mxCell>
        <mxCell id="uD5t8i6K_N5I61Tdnms8-269" value="" style="endArrow=open;html=1;rounded=0;endSize=3;endFill=0;strokeWidth=1;fillColor=#d5e8d4;strokeColor=#82b366;exitX=0.485;exitY=0.012;exitDx=0;exitDy=0;exitPerimeter=0;" edge="1" parent="1">
          <mxGeometry width="50" height="50" relative="1" as="geometry">
            <mxPoint x="335.75" y="739.3599999999999" as="sourcePoint" />
            <mxPoint x="327" y="733" as="targetPoint" />
          </mxGeometry>
        </mxCell>
        <mxCell id="uD5t8i6K_N5I61Tdnms8-270" value="" style="endArrow=open;html=1;rounded=0;endSize=3;endFill=0;strokeWidth=1;fillColor=#d5e8d4;strokeColor=#82b366;" edge="1" parent="1">
          <mxGeometry width="50" height="50" relative="1" as="geometry">
            <mxPoint x="325.25" y="731.5" as="sourcePoint" />
            <mxPoint x="297.25" y="710.5" as="targetPoint" />
          </mxGeometry>
        </mxCell>
        <mxCell id="uD5t8i6K_N5I61Tdnms8-271" value="" style="endArrow=open;html=1;rounded=0;endSize=3;endFill=0;strokeWidth=1;fillColor=#d5e8d4;strokeColor=#82b366;" edge="1" parent="1">
          <mxGeometry width="50" height="50" relative="1" as="geometry">
            <mxPoint x="296" y="710" as="sourcePoint" />
            <mxPoint x="268" y="689" as="targetPoint" />
          </mxGeometry>
        </mxCell>
        <mxCell id="uD5t8i6K_N5I61Tdnms8-272" value="" style="endArrow=open;html=1;rounded=0;endSize=3;endFill=0;strokeWidth=1;fillColor=#d5e8d4;strokeColor=#82b366;" edge="1" parent="1">
          <mxGeometry width="50" height="50" relative="1" as="geometry">
            <mxPoint x="267" y="688" as="sourcePoint" />
            <mxPoint x="239" y="667" as="targetPoint" />
          </mxGeometry>
        </mxCell>
        <mxCell id="uD5t8i6K_N5I61Tdnms8-273" value="" style="endArrow=open;html=1;rounded=0;endSize=3;endFill=0;strokeWidth=1;fillColor=#d5e8d4;strokeColor=#82b366;" edge="1" parent="1">
          <mxGeometry width="50" height="50" relative="1" as="geometry">
            <mxPoint x="197.5" y="667" as="sourcePoint" />
            <mxPoint x="169.5" y="646" as="targetPoint" />
          </mxGeometry>
        </mxCell>
        <mxCell id="uD5t8i6K_N5I61Tdnms8-274" value="" style="endArrow=open;html=1;rounded=0;endSize=3;endFill=0;strokeWidth=1;fillColor=#d5e8d4;strokeColor=#82b366;" edge="1" parent="1">
          <mxGeometry width="50" height="50" relative="1" as="geometry">
            <mxPoint x="167.75" y="644.5" as="sourcePoint" />
            <mxPoint x="139.75" y="623.5" as="targetPoint" />
          </mxGeometry>
        </mxCell>
        <mxCell id="uD5t8i6K_N5I61Tdnms8-275" value="" style="endArrow=open;html=1;rounded=0;endSize=3;endFill=0;strokeWidth=1;fillColor=#d5e8d4;strokeColor=#82b366;entryX=0.046;entryY=0.209;entryDx=0;entryDy=0;entryPerimeter=0;" edge="1" parent="1" target="mXV_nLaLVZJTpSqG4kug-3">
          <mxGeometry width="50" height="50" relative="1" as="geometry">
            <mxPoint x="138.5" y="623" as="sourcePoint" />
            <mxPoint x="110.5" y="602" as="targetPoint" />
          </mxGeometry>
        </mxCell>
        <mxCell id="uD5t8i6K_N5I61Tdnms8-277" value="" style="endArrow=open;html=1;rounded=0;endSize=3;endFill=0;strokeWidth=1;fillColor=#d5e8d4;strokeColor=#82b366;exitX=0.368;exitY=-0.011;exitDx=0;exitDy=0;exitPerimeter=0;" edge="1" parent="1">
          <mxGeometry width="50" height="50" relative="1" as="geometry">
            <mxPoint x="294.79999999999995" y="738.67" as="sourcePoint" />
            <mxPoint x="286.5" y="733" as="targetPoint" />
          </mxGeometry>
        </mxCell>
        <mxCell id="uD5t8i6K_N5I61Tdnms8-278" value="" style="endArrow=open;html=1;rounded=0;endSize=3;endFill=0;strokeWidth=1;fillColor=#d5e8d4;strokeColor=#82b366;" edge="1" parent="1">
          <mxGeometry width="50" height="50" relative="1" as="geometry">
            <mxPoint x="284.75" y="731.5" as="sourcePoint" />
            <mxPoint x="256.75" y="710.5" as="targetPoint" />
          </mxGeometry>
        </mxCell>
        <mxCell id="uD5t8i6K_N5I61Tdnms8-279" value="" style="endArrow=open;html=1;rounded=0;endSize=3;endFill=0;strokeWidth=1;fillColor=#d5e8d4;strokeColor=#82b366;" edge="1" parent="1">
          <mxGeometry width="50" height="50" relative="1" as="geometry">
            <mxPoint x="255.5" y="710" as="sourcePoint" />
            <mxPoint x="227.5" y="689" as="targetPoint" />
          </mxGeometry>
        </mxCell>
        <mxCell id="uD5t8i6K_N5I61Tdnms8-280" value="" style="endArrow=open;html=1;rounded=0;endSize=3;endFill=0;strokeWidth=1;fillColor=#d5e8d4;strokeColor=#82b366;" edge="1" parent="1">
          <mxGeometry width="50" height="50" relative="1" as="geometry">
            <mxPoint x="226.5" y="688" as="sourcePoint" />
            <mxPoint x="198.5" y="667" as="targetPoint" />
          </mxGeometry>
        </mxCell>
        <mxCell id="uD5t8i6K_N5I61Tdnms8-281" value="" style="endArrow=open;html=1;rounded=0;endSize=3;endFill=0;strokeWidth=1;fillColor=#d5e8d4;strokeColor=#82b366;" edge="1" parent="1">
          <mxGeometry width="50" height="50" relative="1" as="geometry">
            <mxPoint x="158" y="667" as="sourcePoint" />
            <mxPoint x="130" y="646" as="targetPoint" />
          </mxGeometry>
        </mxCell>
        <mxCell id="uD5t8i6K_N5I61Tdnms8-282" value="" style="endArrow=open;html=1;rounded=0;endSize=3;endFill=0;strokeWidth=1;fillColor=#d5e8d4;strokeColor=#82b366;entryX=0.035;entryY=0.377;entryDx=0;entryDy=0;entryPerimeter=0;" edge="1" parent="1" target="mXV_nLaLVZJTpSqG4kug-3">
          <mxGeometry width="50" height="50" relative="1" as="geometry">
            <mxPoint x="128.25" y="644.5" as="sourcePoint" />
            <mxPoint x="100.25" y="623.5" as="targetPoint" />
          </mxGeometry>
        </mxCell>
        <mxCell id="uD5t8i6K_N5I61Tdnms8-285" value="" style="endArrow=open;html=1;rounded=0;endSize=3;endFill=0;strokeWidth=1;fillColor=#d5e8d4;strokeColor=#82b366;exitX=0.253;exitY=0;exitDx=0;exitDy=0;exitPerimeter=0;" edge="1" parent="1">
          <mxGeometry width="50" height="50" relative="1" as="geometry">
            <mxPoint x="254.55000000000007" y="739" as="sourcePoint" />
            <mxPoint x="247" y="733" as="targetPoint" />
          </mxGeometry>
        </mxCell>
        <mxCell id="uD5t8i6K_N5I61Tdnms8-286" value="" style="endArrow=open;html=1;rounded=0;endSize=3;endFill=0;strokeWidth=1;fillColor=#d5e8d4;strokeColor=#82b366;" edge="1" parent="1">
          <mxGeometry width="50" height="50" relative="1" as="geometry">
            <mxPoint x="245.25" y="731.5" as="sourcePoint" />
            <mxPoint x="217.25" y="710.5" as="targetPoint" />
          </mxGeometry>
        </mxCell>
        <mxCell id="uD5t8i6K_N5I61Tdnms8-287" value="" style="endArrow=open;html=1;rounded=0;endSize=3;endFill=0;strokeWidth=1;fillColor=#d5e8d4;strokeColor=#82b366;" edge="1" parent="1">
          <mxGeometry width="50" height="50" relative="1" as="geometry">
            <mxPoint x="216" y="710" as="sourcePoint" />
            <mxPoint x="188" y="689" as="targetPoint" />
          </mxGeometry>
        </mxCell>
        <mxCell id="uD5t8i6K_N5I61Tdnms8-288" value="" style="endArrow=open;html=1;rounded=0;endSize=3;endFill=0;strokeWidth=1;fillColor=#d5e8d4;strokeColor=#82b366;" edge="1" parent="1">
          <mxGeometry width="50" height="50" relative="1" as="geometry">
            <mxPoint x="187" y="688" as="sourcePoint" />
            <mxPoint x="159" y="667" as="targetPoint" />
          </mxGeometry>
        </mxCell>
        <mxCell id="uD5t8i6K_N5I61Tdnms8-294" value="" style="endArrow=open;html=1;rounded=0;endSize=3;endFill=0;strokeWidth=1;fillColor=#d5e8d4;strokeColor=#82b366;" edge="1" parent="1">
          <mxGeometry width="50" height="50" relative="1" as="geometry">
            <mxPoint x="205.25" y="731.5" as="sourcePoint" />
            <mxPoint x="177.25" y="710.5" as="targetPoint" />
          </mxGeometry>
        </mxCell>
        <mxCell id="uD5t8i6K_N5I61Tdnms8-295" value="" style="endArrow=open;html=1;rounded=0;endSize=3;endFill=0;strokeWidth=1;fillColor=#d5e8d4;strokeColor=#82b366;" edge="1" parent="1">
          <mxGeometry width="50" height="50" relative="1" as="geometry">
            <mxPoint x="176" y="710" as="sourcePoint" />
            <mxPoint x="148" y="689" as="targetPoint" />
          </mxGeometry>
        </mxCell>
        <mxCell id="uD5t8i6K_N5I61Tdnms8-296" value="" style="endArrow=open;html=1;rounded=0;endSize=3;endFill=0;strokeWidth=1;fillColor=#d5e8d4;strokeColor=#82b366;" edge="1" parent="1">
          <mxGeometry width="50" height="50" relative="1" as="geometry">
            <mxPoint x="147" y="688" as="sourcePoint" />
            <mxPoint x="119" y="667" as="targetPoint" />
          </mxGeometry>
        </mxCell>
        <mxCell id="uD5t8i6K_N5I61Tdnms8-302" value="" style="endArrow=open;html=1;rounded=0;endSize=3;endFill=0;strokeWidth=1;fillColor=#d5e8d4;strokeColor=#82b366;" edge="1" parent="1">
          <mxGeometry width="50" height="50" relative="1" as="geometry">
            <mxPoint x="180.25" y="739.5" as="sourcePoint" />
            <mxPoint x="152.25" y="718.5" as="targetPoint" />
          </mxGeometry>
        </mxCell>
        <mxCell id="uD5t8i6K_N5I61Tdnms8-303" value="" style="endArrow=open;html=1;rounded=0;endSize=3;endFill=0;strokeWidth=1;fillColor=#d5e8d4;strokeColor=#82b366;" edge="1" parent="1">
          <mxGeometry width="50" height="50" relative="1" as="geometry">
            <mxPoint x="151" y="718" as="sourcePoint" />
            <mxPoint x="123" y="697" as="targetPoint" />
          </mxGeometry>
        </mxCell>
        <mxCell id="uD5t8i6K_N5I61Tdnms8-304" value="" style="endArrow=open;html=1;rounded=0;endSize=3;endFill=0;strokeWidth=1;fillColor=#d5e8d4;strokeColor=#82b366;entryX=0.017;entryY=0.698;entryDx=0;entryDy=0;entryPerimeter=0;" edge="1" parent="1" target="mXV_nLaLVZJTpSqG4kug-3">
          <mxGeometry width="50" height="50" relative="1" as="geometry">
            <mxPoint x="122" y="696" as="sourcePoint" />
            <mxPoint x="94" y="675" as="targetPoint" />
          </mxGeometry>
        </mxCell>
        <mxCell id="uD5t8i6K_N5I61Tdnms8-310" value="" style="endArrow=open;html=1;rounded=0;endSize=3;endFill=0;strokeWidth=1;fillColor=#d5e8d4;strokeColor=#82b366;" edge="1" parent="1">
          <mxGeometry width="50" height="50" relative="1" as="geometry">
            <mxPoint x="140.25" y="739.5" as="sourcePoint" />
            <mxPoint x="112.25" y="718.5" as="targetPoint" />
          </mxGeometry>
        </mxCell>
        <mxCell id="uD5t8i6K_N5I61Tdnms8-314" value="" style="endArrow=open;html=1;rounded=0;endSize=3;endFill=0;strokeWidth=1.5;" edge="1" parent="1">
          <mxGeometry width="50" height="50" relative="1" as="geometry">
            <mxPoint x="270" y="660" as="sourcePoint" />
            <mxPoint x="298" y="681" as="targetPoint" />
          </mxGeometry>
        </mxCell>
        <mxCell id="uD5t8i6K_N5I61Tdnms8-315" value="" style="endArrow=open;html=1;rounded=0;endSize=3;endFill=0;strokeWidth=1.5;" edge="1" parent="1">
          <mxGeometry width="50" height="50" relative="1" as="geometry">
            <mxPoint x="270" y="660" as="sourcePoint" />
            <mxPoint x="295" y="635" as="targetPoint" />
          </mxGeometry>
        </mxCell>
        <mxCell id="qe47rq_ZbjpTHTj0nL4r-2" value="" style="verticalLabelPosition=bottom;shadow=0;dashed=0;align=center;html=1;verticalAlign=top;shape=mxgraph.electrical.radio.aerial_-_antenna_2;" vertex="1" parent="1">
          <mxGeometry x="316" y="481.88" width="20" height="25" as="geometry" />
        </mxCell>
        <mxCell id="qe47rq_ZbjpTHTj0nL4r-3" value="&lt;font style=&quot;font-size: 10px;&quot;&gt;$$RX$$&lt;/font&gt;" style="text;html=1;align=center;verticalAlign=middle;resizable=0;points=[];autosize=1;strokeColor=none;fillColor=none;" vertex="1" parent="1">
          <mxGeometry x="296" y="458.13" width="60" height="30" as="geometry" />
        </mxCell>
        <mxCell id="qe47rq_ZbjpTHTj0nL4r-4" value="" style="endArrow=open;html=1;rounded=0;endSize=3;endFill=0;strokeWidth=1;fillColor=#d5e8d4;strokeColor=#82b366;exitX=0.253;exitY=0;exitDx=0;exitDy=0;exitPerimeter=0;" edge="1" parent="1">
          <mxGeometry width="50" height="50" relative="1" as="geometry">
            <mxPoint x="214.25" y="738" as="sourcePoint" />
            <mxPoint x="206.25" y="732" as="targetPoint" />
          </mxGeometry>
        </mxCell>
        <mxCell id="qe47rq_ZbjpTHTj0nL4r-7" value="&lt;span style=&quot;font-size: 10px;&quot;&gt;$$z$$&lt;/span&gt;" style="text;html=1;align=center;verticalAlign=middle;resizable=0;points=[];autosize=1;strokeColor=none;fillColor=none;" vertex="1" parent="1">
          <mxGeometry x="100" y="546" width="50" height="30" as="geometry" />
        </mxCell>
        <mxCell id="qe47rq_ZbjpTHTj0nL4r-6" value="&lt;font style=&quot;font-size: 12px;&quot;&gt;$$\nabla \varphi_{RIS} = \nabla \varphi_r - \nabla \varphi_i$$&lt;/font&gt;" style="text;html=1;align=center;verticalAlign=middle;resizable=0;points=[];autosize=1;strokeColor=none;fillColor=none;" vertex="1" parent="1">
          <mxGeometry x="147" y="739" width="350" height="30" as="geometry" />
        </mxCell>
      </root>
    </mxGraphModel>
  </diagram>
</mxfile>
